<svg width="458" height="112" viewBox="0 0 458 112" fill="none" xmlns="http://www.w3.org/2000/svg">
<path d="M66 33H392" stroke="#213A8F" stroke-width="2" stroke-dasharray="4 4"/>
<rect width="66" height="66" rx="12" fill="#213A8F"/>
<path d="M29.5447 27.456L32.9047 25.2H35.7847V42H32.9047V28.176L29.5447 30.408V27.456Z" fill="white"/>
<rect x="98" width="66" height="66" rx="12" fill="#213A8F"/>
<path d="M125.242 39.456L130.666 34.248C131.194 33.736 131.642 33.288 132.01 32.904C132.378 32.52 132.666 32.168 132.874 31.848C133.098 31.528 133.258 31.232 133.354 30.96C133.45 30.688 133.498 30.408 133.498 30.12C133.498 29.384 133.266 28.792 132.802 28.344C132.338 27.896 131.698 27.672 130.882 27.672C130.066 27.672 129.426 27.904 128.962 28.368C128.498 28.832 128.266 29.496 128.266 30.36H125.242C125.242 29.544 125.37 28.808 125.626 28.152C125.882 27.48 126.25 26.912 126.73 26.448C127.226 25.984 127.818 25.624 128.506 25.368C129.21 25.112 130.002 24.984 130.882 24.984C131.762 24.984 132.546 25.112 133.234 25.368C133.938 25.608 134.53 25.96 135.01 26.424C135.506 26.872 135.882 27.416 136.138 28.056C136.394 28.68 136.522 29.368 136.522 30.12C136.522 31.064 136.218 31.992 135.61 32.904C135.002 33.816 134.058 34.856 132.778 36.024L129.01 39.456H136.522V42H125.242V39.456Z" fill="white"/>
<rect x="196" width="66" height="66" rx="12" fill="#E4E4E4"/>
<path d="M228.879 42.216C226.991 42.216 225.527 41.712 224.487 40.704C223.447 39.68 222.911 38.232 222.879 36.36H225.903C225.935 37.464 226.199 38.272 226.695 38.784C227.191 39.28 227.919 39.528 228.879 39.528C229.871 39.528 230.615 39.304 231.111 38.856C231.607 38.392 231.855 37.776 231.855 37.008C231.855 36.32 231.615 35.752 231.135 35.304C230.671 34.856 229.975 34.632 229.047 34.632H226.839V32.088H229.047C229.815 32.088 230.415 31.888 230.847 31.488C231.279 31.088 231.495 30.568 231.495 29.928C231.495 29.256 231.271 28.712 230.823 28.296C230.391 27.88 229.743 27.672 228.879 27.672C227.279 27.672 226.407 28.568 226.263 30.36H223.239C223.271 28.68 223.775 27.368 224.751 26.424C225.743 25.464 227.119 24.984 228.879 24.984C229.807 24.984 230.623 25.104 231.327 25.344C232.031 25.568 232.615 25.888 233.079 26.304C233.559 26.72 233.919 27.224 234.159 27.816C234.399 28.392 234.519 29.032 234.519 29.736C234.519 30.504 234.351 31.2 234.015 31.824C233.679 32.448 233.159 32.952 232.455 33.336C233.271 33.736 233.879 34.28 234.279 34.968C234.679 35.64 234.879 36.392 234.879 37.224C234.879 37.96 234.751 38.64 234.495 39.264C234.239 39.872 233.855 40.4 233.343 40.848C232.847 41.28 232.223 41.616 231.471 41.856C230.735 42.096 229.871 42.216 228.879 42.216Z" fill="white"/>
<rect x="294" width="66" height="66" rx="12" fill="#E4E4E4"/>
<path d="M320.575 35.928L327.583 25.2H331.375V35.928H333.295V38.472H331.375V42H328.495V38.472H320.575V35.928ZM328.495 35.928V28.392L323.671 35.928H328.495Z" fill="white"/>
<rect x="392" width="66" height="66" rx="12" fill="#E4E4E4"/>
<path d="M419.667 19.6667V23.6667" stroke="white" stroke-width="2" stroke-miterlimit="10" stroke-linecap="round" stroke-linejoin="round"/>
<path d="M430.333 19.6667V23.6667" stroke="white" stroke-width="2" stroke-miterlimit="10" stroke-linecap="round" stroke-linejoin="round"/>
<path d="M413.667 29.1199H436.333" stroke="white" stroke-width="2" stroke-miterlimit="10" stroke-linecap="round" stroke-linejoin="round"/>
<path d="M437 28.3334V39.6667C437 43.6667 435 46.3334 430.333 46.3334H419.667C415 46.3334 413 43.6667 413 39.6667V28.3334C413 24.3334 415 21.6667 419.667 21.6667H430.333C435 21.6667 437 24.3334 437 28.3334Z" stroke="white" stroke-width="2" stroke-miterlimit="10" stroke-linecap="round" stroke-linejoin="round"/>
<path d="M429.926 35.2668H429.938" stroke="white" stroke-width="2" stroke-linecap="round" stroke-linejoin="round"/>
<path d="M429.926 39.2668H429.938" stroke="white" stroke-width="2" stroke-linecap="round" stroke-linejoin="round"/>
<path d="M424.994 35.2668H425.006" stroke="white" stroke-width="2" stroke-linecap="round" stroke-linejoin="round"/>
<path d="M424.994 39.2668H425.006" stroke="white" stroke-width="2" stroke-linecap="round" stroke-linejoin="round"/>
<path d="M420.059 35.2668H420.071" stroke="white" stroke-width="2" stroke-linecap="round" stroke-linejoin="round"/>
<path d="M420.059 39.2668H420.071" stroke="white" stroke-width="2" stroke-linecap="round" stroke-linejoin="round"/>
<rect x="18" y="80" width="32" height="32" rx="7" fill="white"/>
<path d="M36.8408 99.6807H32.1742C30.5642 99.6807 29.2575 98.3741 29.2575 96.7641C29.2575 95.1541 30.5642 93.8474 32.1742 93.8474H38.5908" stroke="#009974" stroke-width="1.5" stroke-miterlimit="10" stroke-linecap="round" stroke-linejoin="round"/>
<path d="M37.2492 95.3058L38.7425 93.8124L37.2492 92.3191" stroke="#009974" stroke-width="1.5" stroke-linecap="round" stroke-linejoin="round"/>
<circle cx="131" cy="96" r="2" fill="#009974"/>
</svg>
