<svg width="1066" height="20" viewBox="0 0 1066 20" fill="none" xmlns="http://www.w3.org/2000/svg">
<path d="M8.16 6.496H3.04V16H1.12V4.8H10.08V16H8.16V6.496ZM14.3231 16.144C13.4591 16.144 12.8031 15.9307 12.3551 15.504C11.9071 15.0773 11.6831 14.4853 11.6831 13.728C11.6831 13.312 11.7471 12.9387 11.8751 12.608C12.0138 12.2667 12.2271 11.984 12.5151 11.76C12.8138 11.5253 13.1925 11.3493 13.6511 11.232C14.1205 11.104 14.6911 11.04 15.3631 11.04H16.7071V10.56C16.7071 10.176 16.6005 9.888 16.3871 9.696C16.1845 9.49333 15.8431 9.392 15.3631 9.392C14.9151 9.392 14.5898 9.47733 14.3871 9.648C14.1845 9.81867 14.0618 10.0427 14.0191 10.32H12.0031C12.0458 9.60533 12.3338 9.01867 12.8671 8.56C13.4111 8.09067 14.2431 7.856 15.3631 7.856C16.4298 7.856 17.2298 8.10133 17.7631 8.592C18.2965 9.08267 18.5631 9.73867 18.5631 10.56V16H17.1071L16.9151 14.896C16.6378 15.3013 16.2751 15.6107 15.8271 15.824C15.3898 16.0373 14.8885 16.144 14.3231 16.144ZM14.6431 14.608C14.9418 14.608 15.2138 14.56 15.4591 14.464C15.7151 14.3573 15.9338 14.2187 16.1151 14.048C16.2965 13.8667 16.4405 13.664 16.5471 13.44C16.6538 13.216 16.7071 12.976 16.7071 12.72V12.48H15.3631C14.7231 12.48 14.2751 12.5867 14.0191 12.8C13.7631 13.0133 13.6351 13.3013 13.6351 13.664C13.6351 13.952 13.7205 14.1813 13.8911 14.352C14.0725 14.5227 14.3231 14.608 14.6431 14.608ZM24.7476 16.144C23.745 16.144 22.9663 15.8293 22.4116 15.2V19.2H20.5556V8H22.0116L22.1876 9.088C22.465 8.672 22.817 8.36267 23.2436 8.16C23.681 7.95733 24.1823 7.856 24.7476 7.856C25.2063 7.856 25.6276 7.94133 26.0116 8.112C26.4063 8.272 26.7423 8.51733 27.0196 8.848C27.297 9.168 27.5156 9.57333 27.6756 10.064C27.8356 10.544 27.9156 11.104 27.9156 11.744V12.256C27.9156 12.896 27.8356 13.456 27.6756 13.936C27.5156 14.416 27.2916 14.8213 27.0036 15.152C26.7263 15.4827 26.3956 15.7333 26.0116 15.904C25.6276 16.064 25.2063 16.144 24.7476 16.144ZM24.1876 14.416C24.753 14.416 25.1903 14.2453 25.4996 13.904C25.809 13.5627 25.9636 13.0133 25.9636 12.256V11.744C25.9636 11.008 25.8036 10.464 25.4836 10.112C25.1636 9.76 24.7316 9.584 24.1876 9.584C23.6756 9.584 23.2543 9.76 22.9236 10.112C22.6036 10.464 22.433 10.976 22.4116 11.648V12.256C22.4116 12.96 22.577 13.4987 22.9076 13.872C23.249 14.2347 23.6756 14.416 24.1876 14.416ZM34.8528 12.736H31.3648V16H29.5088V8H31.3648V11.104H34.8528V8H36.7088V16H34.8528V12.736ZM42.07 16.144C41.494 16.144 40.9767 16.0587 40.518 15.888C40.0593 15.7067 39.6647 15.4507 39.334 15.12C39.0033 14.7787 38.7473 14.368 38.566 13.888C38.3953 13.408 38.31 12.864 38.31 12.256V11.744C38.31 11.136 38.3953 10.592 38.566 10.112C38.7473 9.632 39.0033 9.22667 39.334 8.896C39.6647 8.55467 40.0593 8.29867 40.518 8.128C40.9767 7.94667 41.494 7.856 42.07 7.856C43.2327 7.856 44.15 8.21333 44.822 8.928C45.494 9.64267 45.83 10.6667 45.83 12V12.624H40.166C40.2193 13.296 40.406 13.7813 40.726 14.08C41.046 14.368 41.494 14.512 42.07 14.512C42.6353 14.512 43.046 14.416 43.302 14.224C43.5687 14.0213 43.7447 13.7867 43.83 13.52H45.75C45.6647 13.8933 45.5313 14.24 45.35 14.56C45.1687 14.88 44.9287 15.1573 44.63 15.392C44.3313 15.6267 43.9687 15.8133 43.542 15.952C43.1153 16.08 42.6247 16.144 42.07 16.144ZM42.07 9.488C41.526 9.488 41.0993 9.62133 40.79 9.888C40.4807 10.1547 40.2833 10.576 40.198 11.152H43.942C43.8673 10.5547 43.67 10.128 43.35 9.872C43.0407 9.616 42.614 9.488 42.07 9.488ZM51.6226 16.144C50.62 16.144 49.8413 15.8293 49.2866 15.2V19.2H47.4306V8H48.8866L49.0626 9.088C49.34 8.672 49.692 8.36267 50.1186 8.16C50.556 7.95733 51.0573 7.856 51.6226 7.856C52.0813 7.856 52.5026 7.94133 52.8866 8.112C53.2813 8.272 53.6173 8.51733 53.8946 8.848C54.172 9.168 54.3906 9.57333 54.5506 10.064C54.7106 10.544 54.7906 11.104 54.7906 11.744V12.256C54.7906 12.896 54.7106 13.456 54.5506 13.936C54.3906 14.416 54.1666 14.8213 53.8786 15.152C53.6013 15.4827 53.2706 15.7333 52.8866 15.904C52.5026 16.064 52.0813 16.144 51.6226 16.144ZM51.0626 14.416C51.628 14.416 52.0653 14.2453 52.3746 13.904C52.684 13.5627 52.8386 13.0133 52.8386 12.256V11.744C52.8386 11.008 52.6786 10.464 52.3586 10.112C52.0386 9.76 51.6066 9.584 51.0626 9.584C50.5506 9.584 50.1293 9.76 49.7986 10.112C49.4786 10.464 49.308 10.976 49.2866 11.648V12.256C49.2866 12.96 49.452 13.4987 49.7826 13.872C50.124 14.2347 50.5506 14.416 51.0626 14.416ZM56.3838 8H58.2398V10.4H59.4238C60.6504 10.4 61.5411 10.6507 62.0958 11.152C62.6611 11.6533 62.9438 12.336 62.9438 13.2C62.9438 14.064 62.6611 14.7467 62.0958 15.248C61.5411 15.7493 60.6504 16 59.4238 16H56.3838V8ZM63.8078 8H65.6638V16H63.8078V8ZM58.2398 11.92V14.48H59.5038C60.0158 14.48 60.3891 14.368 60.6238 14.144C60.8691 13.92 60.9918 13.6053 60.9918 13.2C60.9918 12.7947 60.8691 12.48 60.6238 12.256C60.3891 12.032 60.0158 11.92 59.5038 11.92H58.2398ZM68.7031 10.416C68.3298 10.416 68.0205 10.2933 67.7751 10.048C67.5405 9.792 67.4231 9.488 67.4231 9.136C67.4231 8.784 67.5405 8.48533 67.7751 8.24C68.0205 7.984 68.3298 7.856 68.7031 7.856C69.0765 7.856 69.3805 7.984 69.6151 8.24C69.8605 8.48533 69.9831 8.784 69.9831 9.136C69.9831 9.488 69.8605 9.792 69.6151 10.048C69.3805 10.2933 69.0765 10.416 68.7031 10.416ZM68.7031 16.144C68.3298 16.144 68.0205 16.0213 67.7751 15.776C67.5405 15.52 67.4231 15.216 67.4231 14.864C67.4231 14.512 67.5405 14.2133 67.7751 13.968C68.0205 13.712 68.3298 13.584 68.7031 13.584C69.0765 13.584 69.3805 13.712 69.6151 13.968C69.8605 14.2133 69.9831 14.512 69.9831 14.864C69.9831 15.216 69.8605 15.52 69.6151 15.776C69.3805 16.0213 69.0765 16.144 68.7031 16.144Z" fill="#B3B3B3"/>
<path d="M221.66 10.94C220.988 10.7253 220.493 10.38 220.176 9.904C219.859 9.428 219.7 8.854 219.7 8.182C219.7 7.258 219.994 6.53 220.582 5.998C221.17 5.466 222.089 5.2 223.34 5.2H226.56V15H225.244V11.164H223.34C223.265 11.164 223.195 11.164 223.13 11.164C223.065 11.164 222.995 11.1593 222.92 11.15L220.876 15H219.42L221.66 10.94ZM221.072 8.182C221.072 8.742 221.249 9.18067 221.604 9.498C221.959 9.806 222.537 9.96 223.34 9.96H225.244V6.404H223.34C222.537 6.404 221.959 6.56267 221.604 6.88C221.249 7.188 221.072 7.622 221.072 8.182ZM230.678 10.94L229.992 9.428V15H228.732V8H230.58L232.47 11.976L234.36 8H236.152V15H234.892V9.414L234.192 10.94L233.072 13.32H231.812L230.678 10.94ZM239.997 15.112C239.269 15.112 238.714 14.93 238.331 14.566C237.949 14.1927 237.757 13.684 237.757 13.04C237.757 12.6853 237.813 12.368 237.925 12.088C238.037 11.7987 238.215 11.556 238.457 11.36C238.709 11.164 239.027 11.0147 239.409 10.912C239.801 10.8093 240.277 10.758 240.837 10.758H242.237V10.24C242.237 9.848 242.121 9.54467 241.887 9.33C241.663 9.11533 241.313 9.008 240.837 9.008C240.361 9.008 240.016 9.09667 239.801 9.274C239.596 9.45133 239.475 9.68 239.437 9.96H238.037C238.075 9.36267 238.317 8.868 238.765 8.476C239.223 8.084 239.913 7.888 240.837 7.888C241.715 7.888 242.377 8.098 242.825 8.518C243.273 8.938 243.497 9.512 243.497 10.24V15H242.517L242.363 13.852C242.111 14.2533 241.78 14.566 241.369 14.79C240.968 15.0047 240.511 15.112 239.997 15.112ZM240.137 13.992C240.445 13.992 240.725 13.9407 240.977 13.838C241.239 13.7353 241.463 13.6 241.649 13.432C241.836 13.2547 241.981 13.0493 242.083 12.816C242.186 12.5827 242.237 12.3353 242.237 12.074V11.822H240.837C240.193 11.822 239.736 11.934 239.465 12.158C239.204 12.3727 239.073 12.6573 239.073 13.012C239.073 13.3107 239.167 13.5487 239.353 13.726C239.54 13.9033 239.801 13.992 240.137 13.992ZM244.681 13.908H244.891C245.04 13.908 245.18 13.8707 245.311 13.796C245.451 13.7213 245.572 13.5907 245.675 13.404C245.777 13.2173 245.857 12.9653 245.913 12.648C245.978 12.3307 246.011 11.9293 246.011 11.444V8H251.051V15H249.791V9.148H247.271V11.444C247.271 12.1347 247.215 12.7133 247.103 13.18C246.991 13.6467 246.832 14.0247 246.627 14.314C246.421 14.6033 246.169 14.8087 245.871 14.93C245.581 15.0513 245.255 15.112 244.891 15.112H244.681V13.908ZM263.104 6.698L262.376 8.14L258.512 15H256.72V5.2H258.036V13.502L258.764 12.06L262.628 5.2H264.42V15H263.104V6.698ZM269.977 15.112C269.053 15.112 268.344 14.8087 267.849 14.202V17.8H266.589V8H267.569L267.695 9.008C267.938 8.63467 268.255 8.35467 268.647 8.168C269.039 7.98133 269.487 7.888 269.991 7.888C270.383 7.888 270.747 7.96267 271.083 8.112C271.428 8.252 271.722 8.46667 271.965 8.756C272.208 9.036 272.399 9.386 272.539 9.806C272.679 10.2167 272.749 10.6927 272.749 11.234V11.766C272.749 12.3073 272.679 12.788 272.539 13.208C272.399 13.6187 272.203 13.9687 271.951 14.258C271.708 14.538 271.414 14.7527 271.069 14.902C270.733 15.042 270.369 15.112 269.977 15.112ZM269.641 13.908C270.201 13.908 270.64 13.7353 270.957 13.39C271.274 13.0447 271.433 12.5033 271.433 11.766V11.234C271.433 10.506 271.274 9.96933 270.957 9.624C270.64 9.26933 270.201 9.092 269.641 9.092C269.137 9.092 268.717 9.26467 268.381 9.61C268.045 9.95533 267.868 10.464 267.849 11.136V11.766C267.849 12.4567 268.017 12.9887 268.353 13.362C268.689 13.726 269.118 13.908 269.641 13.908ZM279.183 9.498L278.413 10.94L276.047 15H274.423V8H275.683V13.502L276.453 12.06L278.819 8H280.443V15H279.183V9.498Z" fill="#B3B3B3"/>
<path d="M447.064 15H440.526V17.1H439.21V13.796H440.036C440.241 13.5347 440.409 13.264 440.54 12.984C440.671 12.6947 440.773 12.3493 440.848 11.948C440.923 11.5467 440.969 11.066 440.988 10.506C441.016 9.93667 441.03 9.24133 441.03 8.42V5.2H447.4V13.796H448.38V17.1H447.064V15ZM442.346 8.42C442.346 9.12933 442.337 9.75467 442.318 10.296C442.299 10.8373 442.262 11.3227 442.206 11.752C442.15 12.1813 442.066 12.5593 441.954 12.886C441.851 13.2127 441.711 13.516 441.534 13.796H446.084V6.404H442.346V8.42ZM452.309 15.112C451.843 15.112 451.413 15.0373 451.021 14.888C450.639 14.7293 450.307 14.5053 450.027 14.216C449.757 13.9267 449.542 13.5767 449.383 13.166C449.234 12.7553 449.159 12.2887 449.159 11.766V11.234C449.159 10.7207 449.234 10.2587 449.383 9.848C449.542 9.43733 449.761 9.08733 450.041 8.798C450.321 8.50867 450.653 8.28467 451.035 8.126C451.418 7.96733 451.843 7.888 452.309 7.888C452.776 7.888 453.201 7.96733 453.583 8.126C453.975 8.27533 454.307 8.49467 454.577 8.784C454.857 9.07333 455.072 9.428 455.221 9.848C455.38 10.2587 455.459 10.7207 455.459 11.234V11.906H450.475C450.494 12.5873 450.671 13.1007 451.007 13.446C451.343 13.7913 451.777 13.964 452.309 13.964C452.86 13.964 453.261 13.866 453.513 13.67C453.765 13.474 453.961 13.194 454.101 12.83H455.389C455.249 13.5207 454.937 14.076 454.451 14.496C453.966 14.9067 453.252 15.112 452.309 15.112ZM452.309 9.036C451.805 9.036 451.39 9.18533 451.063 9.484C450.746 9.77333 450.555 10.2167 450.489 10.814H454.115C454.059 10.198 453.877 9.75 453.569 9.47C453.261 9.18067 452.841 9.036 452.309 9.036ZM461.9 12.004H458.4V15H457.14V8H458.4V10.856H461.9V8H463.16V15H461.9V12.004ZM465.261 8H466.521V10.24H467.851C468.906 10.24 469.671 10.4547 470.147 10.884C470.623 11.304 470.861 11.8827 470.861 12.62C470.861 13.3667 470.623 13.95 470.147 14.37C469.671 14.79 468.906 15 467.851 15H465.261V8ZM466.521 11.388V13.852H467.921C468.537 13.852 468.966 13.7493 469.209 13.544C469.452 13.3293 469.573 13.0213 469.573 12.62C469.573 12.2187 469.452 11.9153 469.209 11.71C468.966 11.4953 468.537 11.388 467.921 11.388H466.521ZM479.681 15.112C479.056 15.112 478.486 15.0093 477.973 14.804C477.46 14.5893 477.016 14.286 476.643 13.894C476.279 13.502 475.994 13.0213 475.789 12.452C475.584 11.8827 475.481 11.234 475.481 10.506V9.694C475.481 8.97533 475.584 8.33133 475.789 7.762C475.994 7.19267 476.284 6.712 476.657 6.32C477.03 5.91867 477.474 5.61533 477.987 5.41C478.5 5.19533 479.065 5.088 479.681 5.088C480.306 5.088 480.876 5.19533 481.389 5.41C481.902 5.61533 482.341 5.914 482.705 6.306C483.078 6.698 483.368 7.17867 483.573 7.748C483.778 8.31733 483.881 8.966 483.881 9.694V10.506C483.881 11.2247 483.778 11.8687 483.573 12.438C483.368 13.0073 483.078 13.4927 482.705 13.894C482.332 14.286 481.888 14.5893 481.375 14.804C480.862 15.0093 480.297 15.112 479.681 15.112ZM479.681 13.852C480.092 13.852 480.47 13.782 480.815 13.642C481.16 13.4927 481.459 13.278 481.711 12.998C481.963 12.718 482.159 12.3727 482.299 11.962C482.439 11.542 482.509 11.0567 482.509 10.506V9.694C482.509 9.15267 482.439 8.67667 482.299 8.266C482.159 7.846 481.963 7.496 481.711 7.216C481.459 6.92667 481.16 6.712 480.815 6.572C480.47 6.42267 480.092 6.348 479.681 6.348C479.27 6.348 478.892 6.42267 478.547 6.572C478.202 6.712 477.903 6.922 477.651 7.202C477.399 7.482 477.203 7.832 477.063 8.252C476.923 8.672 476.853 9.15267 476.853 9.694V10.506C476.853 11.0473 476.923 11.528 477.063 11.948C477.203 12.3587 477.399 12.7087 477.651 12.998C477.903 13.278 478.202 13.4927 478.547 13.642C478.892 13.782 479.27 13.852 479.681 13.852ZM484.437 13.908H484.647C484.796 13.908 484.936 13.8707 485.067 13.796C485.207 13.7213 485.328 13.5907 485.431 13.404C485.533 13.2173 485.613 12.9653 485.669 12.648C485.734 12.3307 485.767 11.9293 485.767 11.444V8H490.807V15H489.547V9.148H487.027V11.444C487.027 12.1347 486.971 12.7133 486.859 13.18C486.747 13.6467 486.588 14.0247 486.383 14.314C486.177 14.6033 485.925 14.8087 485.627 14.93C485.337 15.0513 485.011 15.112 484.647 15.112H484.437V13.908ZM495.635 15.112C495.169 15.112 494.739 15.0373 494.347 14.888C493.965 14.7293 493.633 14.5053 493.353 14.216C493.083 13.9267 492.868 13.5767 492.709 13.166C492.56 12.7553 492.485 12.2887 492.485 11.766V11.234C492.485 10.7207 492.56 10.2587 492.709 9.848C492.868 9.43733 493.087 9.08733 493.367 8.798C493.647 8.50867 493.979 8.28467 494.361 8.126C494.744 7.96733 495.169 7.888 495.635 7.888C496.102 7.888 496.527 7.96733 496.909 8.126C497.301 8.27533 497.633 8.49467 497.903 8.784C498.183 9.07333 498.398 9.428 498.547 9.848C498.706 10.2587 498.785 10.7207 498.785 11.234V11.906H493.801C493.82 12.5873 493.997 13.1007 494.333 13.446C494.669 13.7913 495.103 13.964 495.635 13.964C496.186 13.964 496.587 13.866 496.839 13.67C497.091 13.474 497.287 13.194 497.427 12.83H498.715C498.575 13.5207 498.263 14.076 497.777 14.496C497.292 14.9067 496.578 15.112 495.635 15.112ZM495.635 9.036C495.131 9.036 494.716 9.18533 494.389 9.484C494.072 9.77333 493.881 10.2167 493.815 10.814H497.441C497.385 10.198 497.203 9.75 496.895 9.47C496.587 9.18067 496.167 9.036 495.635 9.036ZM505.226 12.004H501.726V15H500.466V8H501.726V10.856H505.226V8H506.486V15H505.226V12.004ZM511.317 15.112C510.85 15.112 510.421 15.0373 510.029 14.888C509.646 14.7293 509.315 14.5053 509.035 14.216C508.764 13.9267 508.55 13.5767 508.391 13.166C508.242 12.7553 508.167 12.2887 508.167 11.766V11.234C508.167 10.7207 508.242 10.2587 508.391 9.848C508.55 9.43733 508.769 9.08733 509.049 8.798C509.329 8.50867 509.66 8.28467 510.043 8.126C510.426 7.96733 510.85 7.888 511.317 7.888C511.784 7.888 512.208 7.96733 512.591 8.126C512.983 8.27533 513.314 8.49467 513.585 8.784C513.865 9.07333 514.08 9.428 514.229 9.848C514.388 10.2587 514.467 10.7207 514.467 11.234V11.906H509.483C509.502 12.5873 509.679 13.1007 510.015 13.446C510.351 13.7913 510.785 13.964 511.317 13.964C511.868 13.964 512.269 13.866 512.521 13.67C512.773 13.474 512.969 13.194 513.109 12.83H514.397C514.257 13.5207 513.944 14.076 513.459 14.496C512.974 14.9067 512.26 15.112 511.317 15.112ZM511.317 9.036C510.813 9.036 510.398 9.18533 510.071 9.484C509.754 9.77333 509.562 10.2167 509.497 10.814H513.123C513.067 10.198 512.885 9.75 512.577 9.47C512.269 9.18067 511.849 9.036 511.317 9.036ZM516.148 8H518.808C519.75 8 520.427 8.17733 520.838 8.532C521.258 8.88667 521.468 9.358 521.468 9.946C521.468 10.2353 521.398 10.5013 521.258 10.744C521.118 10.9867 520.898 11.192 520.6 11.36C520.992 11.5187 521.281 11.7427 521.468 12.032C521.654 12.312 521.748 12.6247 521.748 12.97C521.748 13.6047 521.538 14.104 521.118 14.468C520.707 14.8227 520.03 15 519.088 15H516.148V8ZM517.408 11.976V13.852H519.088C519.592 13.852 519.942 13.7727 520.138 13.614C520.334 13.446 520.432 13.208 520.432 12.9C520.432 12.6013 520.334 12.3727 520.138 12.214C519.942 12.0553 519.592 11.976 519.088 11.976H517.408ZM517.408 9.148V10.884H518.808C519.321 10.884 519.671 10.8093 519.858 10.66C520.054 10.5013 520.152 10.2867 520.152 10.016C520.152 9.74533 520.054 9.53533 519.858 9.386C519.671 9.22733 519.321 9.148 518.808 9.148H517.408ZM526.221 15.112C525.726 15.112 525.278 15.0373 524.877 14.888C524.485 14.7293 524.149 14.51 523.869 14.23C523.589 13.9407 523.374 13.5907 523.225 13.18C523.076 12.76 523.001 12.2887 523.001 11.766V11.234C523.001 10.7207 523.076 10.2587 523.225 9.848C523.384 9.428 523.603 9.07333 523.883 8.784C524.163 8.49467 524.499 8.27533 524.891 8.126C525.292 7.96733 525.736 7.888 526.221 7.888C526.706 7.888 527.145 7.96733 527.537 8.126C527.938 8.27533 528.279 8.49467 528.559 8.784C528.839 9.064 529.054 9.414 529.203 9.834C529.362 10.2447 529.441 10.7113 529.441 11.234V11.766C529.441 12.2887 529.362 12.7553 529.203 13.166C529.054 13.5767 528.839 13.9267 528.559 14.216C528.279 14.5053 527.938 14.7293 527.537 14.888C527.145 15.0373 526.706 15.112 526.221 15.112ZM526.221 13.908C526.809 13.908 527.271 13.7307 527.607 13.376C527.952 13.012 528.125 12.4753 528.125 11.766V11.234C528.125 10.534 527.952 10.002 527.607 9.638C527.271 9.274 526.809 9.092 526.221 9.092C525.633 9.092 525.166 9.274 524.821 9.638C524.485 9.99267 524.317 10.5247 524.317 11.234V11.766C524.317 12.466 524.485 12.998 524.821 13.362C525.166 13.726 525.633 13.908 526.221 13.908ZM536.162 15H531.332V16.82H530.072V13.852H530.828C530.977 13.6467 531.098 13.4367 531.192 13.222C531.294 12.998 531.374 12.7413 531.43 12.452C531.486 12.1627 531.523 11.8313 531.542 11.458C531.57 11.0753 531.584 10.6227 531.584 10.1V8H536.512V13.852H537.422V16.82H536.162V15ZM532.816 10.1C532.816 10.66 532.802 11.1407 532.774 11.542C532.746 11.9433 532.704 12.2887 532.648 12.578C532.592 12.8673 532.522 13.1147 532.438 13.32C532.363 13.516 532.279 13.6933 532.186 13.852H535.252V9.148H532.816V10.1ZM540.566 15.112C539.838 15.112 539.282 14.93 538.9 14.566C538.517 14.1927 538.326 13.684 538.326 13.04C538.326 12.6853 538.382 12.368 538.494 12.088C538.606 11.7987 538.783 11.556 539.026 11.36C539.278 11.164 539.595 11.0147 539.978 10.912C540.37 10.8093 540.846 10.758 541.406 10.758H542.806V10.24C542.806 9.848 542.689 9.54467 542.456 9.33C542.232 9.11533 541.882 9.008 541.406 9.008C540.93 9.008 540.584 9.09667 540.37 9.274C540.164 9.45133 540.043 9.68 540.006 9.96H538.606C538.643 9.36267 538.886 8.868 539.334 8.476C539.791 8.084 540.482 7.888 541.406 7.888C542.283 7.888 542.946 8.098 543.394 8.518C543.842 8.938 544.066 9.512 544.066 10.24V15H543.086L542.932 13.852C542.68 14.2533 542.348 14.566 541.938 14.79C541.536 15.0047 541.079 15.112 540.566 15.112ZM540.706 13.992C541.014 13.992 541.294 13.9407 541.546 13.838C541.807 13.7353 542.031 13.6 542.218 13.432C542.404 13.2547 542.549 13.0493 542.652 12.816C542.754 12.5827 542.806 12.3353 542.806 12.074V11.822H541.406C540.762 11.822 540.304 11.934 540.034 12.158C539.772 12.3727 539.642 12.6573 539.642 13.012C539.642 13.3107 539.735 13.5487 539.922 13.726C540.108 13.9033 540.37 13.992 540.706 13.992Z" fill="#B3B3B3"/>
<path d="M662.682 10.562H661.436V15H660.12V5.2H661.436V9.358H662.71L665.664 5.2H667.26L663.83 9.946L667.54 15H665.888L662.682 10.562ZM669.94 15L667.112 8H668.484L670.612 13.418L672.628 8H673.972L670.206 17.8H668.862L669.94 15ZM673.962 13.908H674.172C674.321 13.908 674.461 13.8707 674.592 13.796C674.732 13.7213 674.853 13.5907 674.956 13.404C675.059 13.2173 675.138 12.9653 675.194 12.648C675.259 12.3307 675.292 11.9293 675.292 11.444V8H680.332V15H679.072V9.148H676.552V11.444C676.552 12.1347 676.496 12.7133 676.384 13.18C676.272 13.6467 676.113 14.0247 675.908 14.314C675.703 14.6033 675.451 14.8087 675.152 14.93C674.863 15.0513 674.536 15.112 674.172 15.112H673.962V13.908ZM682.431 8H683.691V10.24H685.021C686.076 10.24 686.841 10.4547 687.317 10.884C687.793 11.304 688.031 11.8827 688.031 12.62C688.031 13.3667 687.793 13.95 687.317 14.37C686.841 14.79 686.076 15 685.021 15H682.431V8ZM683.691 11.388V13.852H685.091C685.707 13.852 686.136 13.7493 686.379 13.544C686.622 13.3293 686.743 13.0213 686.743 12.62C686.743 12.2187 686.622 11.9153 686.379 11.71C686.136 11.4953 685.707 11.388 685.091 11.388H683.691ZM687.964 8H693.704V9.148H691.464V15H690.204V9.148H687.964V8ZM697.298 15L694.47 8H695.842L697.97 13.418L699.986 8H701.33L697.564 17.8H696.22L697.298 15ZM705.971 15.112C705.047 15.112 704.338 14.8087 703.843 14.202V17.8H702.583V8H703.563L703.689 9.008C703.932 8.63467 704.249 8.35467 704.641 8.168C705.033 7.98133 705.481 7.888 705.985 7.888C706.377 7.888 706.741 7.96267 707.077 8.112C707.423 8.252 707.717 8.46667 707.959 8.756C708.202 9.036 708.393 9.386 708.533 9.806C708.673 10.2167 708.743 10.6927 708.743 11.234V11.766C708.743 12.3073 708.673 12.788 708.533 13.208C708.393 13.6187 708.197 13.9687 707.945 14.258C707.703 14.538 707.409 14.7527 707.063 14.902C706.727 15.042 706.363 15.112 705.971 15.112ZM705.635 13.908C706.195 13.908 706.634 13.7353 706.951 13.39C707.269 13.0447 707.427 12.5033 707.427 11.766V11.234C707.427 10.506 707.269 9.96933 706.951 9.624C706.634 9.26933 706.195 9.092 705.635 9.092C705.131 9.092 704.711 9.26467 704.375 9.61C704.039 9.95533 703.862 10.464 703.843 11.136V11.766C703.843 12.4567 704.011 12.9887 704.347 13.362C704.683 13.726 705.113 13.908 705.635 13.908ZM712.167 15.112C711.439 15.112 710.884 14.93 710.501 14.566C710.119 14.1927 709.927 13.684 709.927 13.04C709.927 12.6853 709.983 12.368 710.095 12.088C710.207 11.7987 710.385 11.556 710.627 11.36C710.879 11.164 711.197 11.0147 711.579 10.912C711.971 10.8093 712.447 10.758 713.007 10.758H714.407V10.24C714.407 9.848 714.291 9.54467 714.057 9.33C713.833 9.11533 713.483 9.008 713.007 9.008C712.531 9.008 712.186 9.09667 711.971 9.274C711.766 9.45133 711.645 9.68 711.607 9.96H710.207C710.245 9.36267 710.487 8.868 710.935 8.476C711.393 8.084 712.083 7.888 713.007 7.888C713.885 7.888 714.547 8.098 714.995 8.518C715.443 8.938 715.667 9.512 715.667 10.24V15H714.687L714.533 13.852C714.281 14.2533 713.95 14.566 713.539 14.79C713.138 15.0047 712.681 15.112 712.167 15.112ZM712.307 13.992C712.615 13.992 712.895 13.9407 713.147 13.838C713.409 13.7353 713.633 13.6 713.819 13.432C714.006 13.2547 714.151 13.0493 714.253 12.816C714.356 12.5827 714.407 12.3353 714.407 12.074V11.822H713.007C712.363 11.822 711.906 11.934 711.635 12.158C711.374 12.3727 711.243 12.6573 711.243 13.012C711.243 13.3107 711.337 13.5487 711.523 13.726C711.71 13.9033 711.971 13.992 712.307 13.992ZM722.801 10.94C722.129 10.7253 721.634 10.38 721.317 9.904C720.999 9.428 720.841 8.854 720.841 8.182C720.841 7.258 721.135 6.53 721.723 5.998C722.311 5.466 723.23 5.2 724.481 5.2H727.701V15H726.385V11.164H724.481C724.406 11.164 724.336 11.164 724.271 11.164C724.205 11.164 724.135 11.1593 724.061 11.15L722.017 15H720.561L722.801 10.94ZM722.213 8.182C722.213 8.742 722.39 9.18067 722.745 9.498C723.099 9.806 723.678 9.96 724.481 9.96H726.385V6.404H724.481C723.678 6.404 723.099 6.56267 722.745 6.88C722.39 7.188 722.213 7.622 722.213 8.182ZM731.818 10.94L731.132 9.428V15H729.872V8H731.72L733.61 11.976L735.5 8H737.292V15H736.032V9.414L735.332 10.94L734.212 13.32H732.952L731.818 10.94ZM741.138 15.112C740.41 15.112 739.855 14.93 739.472 14.566C739.089 14.1927 738.898 13.684 738.898 13.04C738.898 12.6853 738.954 12.368 739.066 12.088C739.178 11.7987 739.355 11.556 739.598 11.36C739.85 11.164 740.167 11.0147 740.55 10.912C740.942 10.8093 741.418 10.758 741.978 10.758H743.378V10.24C743.378 9.848 743.261 9.54467 743.028 9.33C742.804 9.11533 742.454 9.008 741.978 9.008C741.502 9.008 741.157 9.09667 740.942 9.274C740.737 9.45133 740.615 9.68 740.578 9.96H739.178C739.215 9.36267 739.458 8.868 739.906 8.476C740.363 8.084 741.054 7.888 741.978 7.888C742.855 7.888 743.518 8.098 743.966 8.518C744.414 8.938 744.638 9.512 744.638 10.24V15H743.658L743.504 13.852C743.252 14.2533 742.921 14.566 742.51 14.79C742.109 15.0047 741.651 15.112 741.138 15.112ZM741.278 13.992C741.586 13.992 741.866 13.9407 742.118 13.838C742.379 13.7353 742.603 13.6 742.79 13.432C742.977 13.2547 743.121 13.0493 743.224 12.816C743.327 12.5827 743.378 12.3353 743.378 12.074V11.822H741.978C741.334 11.822 740.877 11.934 740.606 12.158C740.345 12.3727 740.214 12.6573 740.214 13.012C740.214 13.3107 740.307 13.5487 740.494 13.726C740.681 13.9033 740.942 13.992 741.278 13.992ZM745.821 13.908H746.031C746.181 13.908 746.321 13.8707 746.451 13.796C746.591 13.7213 746.713 13.5907 746.815 13.404C746.918 13.2173 746.997 12.9653 747.053 12.648C747.119 12.3307 747.151 11.9293 747.151 11.444V8H752.191V15H750.931V9.148H748.411V11.444C748.411 12.1347 748.355 12.7133 748.243 13.18C748.131 13.6467 747.973 14.0247 747.767 14.314C747.562 14.6033 747.31 14.8087 747.011 14.93C746.722 15.0513 746.395 15.112 746.031 15.112H745.821V13.908ZM756.04 15.112C755.312 15.112 754.757 14.93 754.374 14.566C753.992 14.1927 753.8 13.684 753.8 13.04C753.8 12.6853 753.856 12.368 753.968 12.088C754.08 11.7987 754.258 11.556 754.5 11.36C754.752 11.164 755.07 11.0147 755.452 10.912C755.844 10.8093 756.32 10.758 756.88 10.758H758.28V10.24C758.28 9.848 758.164 9.54467 757.93 9.33C757.706 9.11533 757.356 9.008 756.88 9.008C756.404 9.008 756.059 9.09667 755.844 9.274C755.639 9.45133 755.518 9.68 755.48 9.96H754.08C754.118 9.36267 754.36 8.868 754.808 8.476C755.266 8.084 755.956 7.888 756.88 7.888C757.758 7.888 758.42 8.098 758.868 8.518C759.316 8.938 759.54 9.512 759.54 10.24V15H758.56L758.406 13.852C758.154 14.2533 757.823 14.566 757.412 14.79C757.011 15.0047 756.554 15.112 756.04 15.112ZM756.18 13.992C756.488 13.992 756.768 13.9407 757.02 13.838C757.282 13.7353 757.506 13.6 757.692 13.432C757.879 13.2547 758.024 13.0493 758.126 12.816C758.229 12.5827 758.28 12.3353 758.28 12.074V11.822H756.88C756.236 11.822 755.779 11.934 755.508 12.158C755.247 12.3727 755.116 12.6573 755.116 13.012C755.116 13.3107 755.21 13.5487 755.396 13.726C755.583 13.9033 755.844 13.992 756.18 13.992Z" fill="#B3B3B3"/>
<path d="M880.12 5.2H883.27C884.493 5.2 885.37 5.43333 885.902 5.9C886.434 6.35733 886.7 6.99667 886.7 7.818C886.7 8.266 886.597 8.672 886.392 9.036C886.187 9.39067 885.869 9.68 885.44 9.904C885.972 10.1187 886.359 10.4267 886.602 10.828C886.854 11.2293 886.98 11.7007 886.98 12.242C886.98 13.1287 886.714 13.81 886.182 14.286C885.65 14.762 884.773 15 883.55 15H880.12V5.2ZM881.436 10.548V13.796H883.55C884.306 13.796 884.838 13.6607 885.146 13.39C885.454 13.1193 885.608 12.7133 885.608 12.172C885.608 11.6307 885.454 11.2247 885.146 10.954C884.838 10.6833 884.306 10.548 883.55 10.548H881.436ZM881.436 6.404V9.372H883.27C884.026 9.372 884.558 9.246 884.866 8.994C885.174 8.73267 885.328 8.364 885.328 7.888C885.328 7.412 885.174 7.048 884.866 6.796C884.558 6.53467 884.026 6.404 883.27 6.404H881.436ZM891.532 15.112C891.037 15.112 890.589 15.0373 890.188 14.888C889.796 14.7293 889.46 14.51 889.18 14.23C888.9 13.9407 888.685 13.5907 888.536 13.18C888.386 12.76 888.312 12.2887 888.312 11.766V11.234C888.312 10.7207 888.386 10.2587 888.536 9.848C888.694 9.428 888.914 9.07333 889.194 8.784C889.474 8.49467 889.81 8.27533 890.202 8.126C890.603 7.96733 891.046 7.888 891.532 7.888C892.017 7.888 892.456 7.96733 892.848 8.126C893.249 8.27533 893.59 8.49467 893.87 8.784C894.15 9.064 894.364 9.414 894.514 9.834C894.672 10.2447 894.752 10.7113 894.752 11.234V11.766C894.752 12.2887 894.672 12.7553 894.514 13.166C894.364 13.5767 894.15 13.9267 893.87 14.216C893.59 14.5053 893.249 14.7293 892.848 14.888C892.456 15.0373 892.017 15.112 891.532 15.112ZM891.532 13.908C892.12 13.908 892.582 13.7307 892.918 13.376C893.263 13.012 893.436 12.4753 893.436 11.766V11.234C893.436 10.534 893.263 10.002 892.918 9.638C892.582 9.274 892.12 9.092 891.532 9.092C890.944 9.092 890.477 9.274 890.132 9.638C889.796 9.99267 889.628 10.5247 889.628 11.234V11.766C889.628 12.466 889.796 12.998 890.132 13.362C890.477 13.726 890.944 13.908 891.532 13.908ZM899.159 15.112C898.188 15.112 897.418 14.8227 896.849 14.244C896.289 13.6653 896.009 12.8393 896.009 11.766V11.234C896.009 10.702 896.084 10.2307 896.233 9.82C896.382 9.40933 896.592 9.05933 896.863 8.77C897.134 8.48067 897.465 8.26133 897.857 8.112C898.249 7.96267 898.683 7.888 899.159 7.888C899.57 7.888 899.934 7.944 900.251 8.056C900.578 8.168 900.858 8.322 901.091 8.518C901.334 8.70467 901.53 8.92867 901.679 9.19C901.838 9.45133 901.954 9.73133 902.029 10.03H900.685C900.582 9.78733 900.405 9.57267 900.153 9.386C899.91 9.19 899.556 9.092 899.089 9.092C898.557 9.092 898.128 9.26933 897.801 9.624C897.484 9.97867 897.325 10.5153 897.325 11.234V11.766C897.325 12.4753 897.488 13.012 897.815 13.376C898.142 13.7307 898.566 13.908 899.089 13.908C899.565 13.908 899.924 13.81 900.167 13.614C900.41 13.418 900.582 13.1567 900.685 12.83H902.029C901.889 13.502 901.581 14.0527 901.105 14.482C900.629 14.902 899.98 15.112 899.159 15.112ZM905.674 12.326L903.812 15H902.384L904.89 11.416L902.524 8H903.952L905.674 10.534L907.424 8H908.824L906.458 11.43L908.964 15H907.508L905.674 12.326ZM912.75 15.112C912.256 15.112 911.808 15.0373 911.406 14.888C911.014 14.7293 910.678 14.51 910.398 14.23C910.118 13.9407 909.904 13.5907 909.754 13.18C909.605 12.76 909.53 12.2887 909.53 11.766V11.234C909.53 10.7207 909.605 10.2587 909.754 9.848C909.913 9.428 910.132 9.07333 910.412 8.784C910.692 8.49467 911.028 8.27533 911.42 8.126C911.822 7.96733 912.265 7.888 912.75 7.888C913.236 7.888 913.674 7.96733 914.066 8.126C914.468 8.27533 914.808 8.49467 915.088 8.784C915.368 9.064 915.583 9.414 915.732 9.834C915.891 10.2447 915.97 10.7113 915.97 11.234V11.766C915.97 12.2887 915.891 12.7553 915.732 13.166C915.583 13.5767 915.368 13.9267 915.088 14.216C914.808 14.5053 914.468 14.7293 914.066 14.888C913.674 15.0373 913.236 15.112 912.75 15.112ZM912.75 13.908C913.338 13.908 913.8 13.7307 914.136 13.376C914.482 13.012 914.654 12.4753 914.654 11.766V11.234C914.654 10.534 914.482 10.002 914.136 9.638C913.8 9.274 913.338 9.092 912.75 9.092C912.162 9.092 911.696 9.274 911.35 9.638C911.014 9.99267 910.846 10.5247 910.846 11.234V11.766C910.846 12.466 911.014 12.998 911.35 13.362C911.696 13.726 912.162 13.908 912.75 13.908ZM922.974 11.934H921.994V15H920.734V11.934H919.754L918.046 15H916.534L918.634 11.402L916.8 8H918.312L919.74 10.786H920.734V8H921.994V10.786H922.96L924.43 8H925.914L924.094 11.318L926.194 15H924.654L922.974 11.934ZM932.767 15H927.937V16.82H926.677V13.852H927.433C927.582 13.6467 927.704 13.4367 927.797 13.222C927.9 12.998 927.979 12.7413 928.035 12.452C928.091 12.1627 928.128 11.8313 928.147 11.458C928.175 11.0753 928.189 10.6227 928.189 10.1V8H933.117V13.852H934.027V16.82H932.767V15ZM929.421 10.1C929.421 10.66 929.407 11.1407 929.379 11.542C929.351 11.9433 929.309 12.2887 929.253 12.578C929.197 12.8673 929.127 13.1147 929.043 13.32C928.968 13.516 928.884 13.6933 928.791 13.852H931.857V9.148H929.421V10.1ZM938.014 15.112C937.548 15.112 937.118 15.0373 936.726 14.888C936.344 14.7293 936.012 14.5053 935.732 14.216C935.462 13.9267 935.247 13.5767 935.088 13.166C934.939 12.7553 934.864 12.2887 934.864 11.766V11.234C934.864 10.7207 934.939 10.2587 935.088 9.848C935.247 9.43733 935.466 9.08733 935.746 8.798C936.026 8.50867 936.358 8.28467 936.74 8.126C937.123 7.96733 937.548 7.888 938.014 7.888C938.481 7.888 938.906 7.96733 939.288 8.126C939.68 8.27533 940.012 8.49467 940.282 8.784C940.562 9.07333 940.777 9.428 940.926 9.848C941.085 10.2587 941.164 10.7207 941.164 11.234V11.906H936.18C936.199 12.5873 936.376 13.1007 936.712 13.446C937.048 13.7913 937.482 13.964 938.014 13.964C938.565 13.964 938.966 13.866 939.218 13.67C939.47 13.474 939.666 13.194 939.806 12.83H941.094C940.954 13.5207 940.642 14.076 940.156 14.496C939.671 14.9067 938.957 15.112 938.014 15.112ZM938.014 9.036C937.51 9.036 937.095 9.18533 936.768 9.484C936.451 9.77333 936.26 10.2167 936.194 10.814H939.82C939.764 10.198 939.582 9.75 939.274 9.47C938.966 9.18067 938.546 9.036 938.014 9.036ZM947.605 12.004H944.105V15H942.845V8H944.105V10.856H947.605V8H948.865V15H947.605V12.004ZM955.726 9.498L954.956 10.94L952.59 15H950.966V8H952.226V13.502L952.996 12.06L955.362 8H956.986V15H955.726V9.498ZM961.817 15.112C961.35 15.112 960.921 15.0373 960.529 14.888C960.146 14.7293 959.815 14.5053 959.535 14.216C959.264 13.9267 959.05 13.5767 958.891 13.166C958.742 12.7553 958.667 12.2887 958.667 11.766V11.234C958.667 10.7207 958.742 10.2587 958.891 9.848C959.05 9.43733 959.269 9.08733 959.549 8.798C959.829 8.50867 960.16 8.28467 960.543 8.126C960.926 7.96733 961.35 7.888 961.817 7.888C962.284 7.888 962.708 7.96733 963.091 8.126C963.483 8.27533 963.814 8.49467 964.085 8.784C964.365 9.07333 964.58 9.428 964.729 9.848C964.888 10.2587 964.967 10.7207 964.967 11.234V11.906H959.983C960.002 12.5873 960.179 13.1007 960.515 13.446C960.851 13.7913 961.285 13.964 961.817 13.964C962.368 13.964 962.769 13.866 963.021 13.67C963.273 13.474 963.469 13.194 963.609 12.83H964.897C964.757 13.5207 964.444 14.076 963.959 14.496C963.474 14.9067 962.76 15.112 961.817 15.112ZM961.817 9.036C961.313 9.036 960.898 9.18533 960.571 9.484C960.254 9.77333 960.062 10.2167 959.997 10.814H963.623C963.567 10.198 963.385 9.75 963.077 9.47C962.769 9.18067 962.349 9.036 961.817 9.036ZM974.908 12.004H971.408V15H970.148V8H971.408V10.856H974.908V8H976.168V15H974.908V12.004ZM980.019 15.112C979.291 15.112 978.735 14.93 978.353 14.566C977.97 14.1927 977.779 13.684 977.779 13.04C977.779 12.6853 977.835 12.368 977.947 12.088C978.059 11.7987 978.236 11.556 978.479 11.36C978.731 11.164 979.048 11.0147 979.431 10.912C979.823 10.8093 980.299 10.758 980.859 10.758H982.259V10.24C982.259 9.848 982.142 9.54467 981.909 9.33C981.685 9.11533 981.335 9.008 980.859 9.008C980.383 9.008 980.037 9.09667 979.823 9.274C979.617 9.45133 979.496 9.68 979.459 9.96H978.059C978.096 9.36267 978.339 8.868 978.787 8.476C979.244 8.084 979.935 7.888 980.859 7.888C981.736 7.888 982.399 8.098 982.847 8.518C983.295 8.938 983.519 9.512 983.519 10.24V15H982.539L982.385 13.852C982.133 14.2533 981.801 14.566 981.391 14.79C980.989 15.0047 980.532 15.112 980.019 15.112ZM980.159 13.992C980.467 13.992 980.747 13.9407 980.999 13.838C981.26 13.7353 981.484 13.6 981.671 13.432C981.857 13.2547 982.002 13.0493 982.105 12.816C982.207 12.5827 982.259 12.3353 982.259 12.074V11.822H980.859C980.215 11.822 979.757 11.934 979.487 12.158C979.225 12.3727 979.095 12.6573 979.095 13.012C979.095 13.3107 979.188 13.5487 979.375 13.726C979.561 13.9033 979.823 13.992 980.159 13.992ZM989.042 8H993.732V9.148H990.302V15H989.042V8ZM997.584 15.112C997.09 15.112 996.642 15.0373 996.24 14.888C995.848 14.7293 995.512 14.51 995.232 14.23C994.952 13.9407 994.738 13.5907 994.588 13.18C994.439 12.76 994.364 12.2887 994.364 11.766V11.234C994.364 10.7207 994.439 10.2587 994.588 9.848C994.747 9.428 994.966 9.07333 995.246 8.784C995.526 8.49467 995.862 8.27533 996.254 8.126C996.656 7.96733 997.099 7.888 997.584 7.888C998.07 7.888 998.508 7.96733 998.9 8.126C999.302 8.27533 999.642 8.49467 999.922 8.784C1000.2 9.064 1000.42 9.414 1000.57 9.834C1000.73 10.2447 1000.8 10.7113 1000.8 11.234V11.766C1000.8 12.2887 1000.73 12.7553 1000.57 13.166C1000.42 13.5767 1000.2 13.9267 999.922 14.216C999.642 14.5053 999.302 14.7293 998.9 14.888C998.508 15.0373 998.07 15.112 997.584 15.112ZM997.584 13.908C998.172 13.908 998.634 13.7307 998.97 13.376C999.316 13.012 999.488 12.4753 999.488 11.766V11.234C999.488 10.534 999.316 10.002 998.97 9.638C998.634 9.274 998.172 9.092 997.584 9.092C996.996 9.092 996.53 9.274 996.184 9.638C995.848 9.99267 995.68 10.5247 995.68 11.234V11.766C995.68 12.466 995.848 12.998 996.184 13.362C996.53 13.726 996.996 13.908 997.584 13.908ZM1005.87 15.112C1004.95 15.112 1004.24 14.8087 1003.74 14.202V17.8H1002.48V8H1003.46L1003.59 9.008C1003.83 8.63467 1004.15 8.35467 1004.54 8.168C1004.93 7.98133 1005.38 7.888 1005.88 7.888C1006.28 7.888 1006.64 7.96267 1006.98 8.112C1007.32 8.252 1007.61 8.46667 1007.86 8.756C1008.1 9.036 1008.29 9.386 1008.43 9.806C1008.57 10.2167 1008.64 10.6927 1008.64 11.234V11.766C1008.64 12.3073 1008.57 12.788 1008.43 13.208C1008.29 13.6187 1008.1 13.9687 1007.84 14.258C1007.6 14.538 1007.31 14.7527 1006.96 14.902C1006.63 15.042 1006.26 15.112 1005.87 15.112ZM1005.53 13.908C1006.09 13.908 1006.53 13.7353 1006.85 13.39C1007.17 13.0447 1007.33 12.5033 1007.33 11.766V11.234C1007.33 10.506 1007.17 9.96933 1006.85 9.624C1006.53 9.26933 1006.09 9.092 1005.53 9.092C1005.03 9.092 1004.61 9.26467 1004.27 9.61C1003.94 9.95533 1003.76 10.464 1003.74 11.136V11.766C1003.74 12.4567 1003.91 12.9887 1004.25 13.362C1004.58 13.726 1005.01 13.908 1005.53 13.908ZM1012.03 15L1009.2 8H1010.57L1012.7 13.418L1014.72 8H1016.06L1012.3 17.8H1010.95L1012.03 15ZM1020.89 5.2H1024.11C1025.37 5.2 1026.28 5.47067 1026.86 6.012C1027.45 6.55333 1027.75 7.328 1027.75 8.336C1027.75 9.316 1027.45 10.086 1026.85 10.646C1026.25 11.1967 1025.34 11.472 1024.11 11.472H1022.2V15H1020.89V5.2ZM1022.2 6.404V10.268H1024.11C1024.92 10.268 1025.5 10.1047 1025.86 9.778C1026.21 9.45133 1026.39 8.97067 1026.39 8.336C1026.39 7.692 1026.21 7.21133 1025.86 6.894C1025.51 6.56733 1024.93 6.404 1024.11 6.404H1022.2ZM1030.96 15.112C1030.23 15.112 1029.68 14.93 1029.29 14.566C1028.91 14.1927 1028.72 13.684 1028.72 13.04C1028.72 12.6853 1028.78 12.368 1028.89 12.088C1029 11.7987 1029.18 11.556 1029.42 11.36C1029.67 11.164 1029.99 11.0147 1030.37 10.912C1030.76 10.8093 1031.24 10.758 1031.8 10.758H1033.2V10.24C1033.2 9.848 1033.08 9.54467 1032.85 9.33C1032.63 9.11533 1032.28 9.008 1031.8 9.008C1031.32 9.008 1030.98 9.09667 1030.76 9.274C1030.56 9.45133 1030.44 9.68 1030.4 9.96H1029C1029.04 9.36267 1029.28 8.868 1029.73 8.476C1030.19 8.084 1030.88 7.888 1031.8 7.888C1032.68 7.888 1033.34 8.098 1033.79 8.518C1034.24 8.938 1034.46 9.512 1034.46 10.24V15H1033.48L1033.33 13.852C1033.07 14.2533 1032.74 14.566 1032.33 14.79C1031.93 15.0047 1031.47 15.112 1030.96 15.112ZM1031.1 13.992C1031.41 13.992 1031.69 13.9407 1031.94 13.838C1032.2 13.7353 1032.43 13.6 1032.61 13.432C1032.8 13.2547 1032.94 13.0493 1033.05 12.816C1033.15 12.5827 1033.2 12.3353 1033.2 12.074V11.822H1031.8C1031.16 11.822 1030.7 11.934 1030.43 12.158C1030.17 12.3727 1030.04 12.6573 1030.04 13.012C1030.04 13.3107 1030.13 13.5487 1030.32 13.726C1030.5 13.9033 1030.76 13.992 1031.1 13.992ZM1041.24 9.498L1040.47 10.94L1038.11 15H1036.48V8H1037.74V13.502L1038.51 12.06L1040.88 8H1042.5V15H1041.24V9.498ZM1039.49 7.132C1038.88 7.132 1038.4 6.964 1038.05 6.628C1037.71 6.28267 1037.53 5.80667 1037.53 5.2H1038.63C1038.63 5.564 1038.7 5.83467 1038.85 6.012C1039.01 6.18 1039.22 6.264 1039.49 6.264C1039.77 6.264 1039.99 6.18 1040.15 6.012C1040.31 5.83467 1040.39 5.564 1040.39 5.2H1041.45C1041.45 5.80667 1041.28 6.28267 1040.94 6.628C1040.59 6.964 1040.11 7.132 1039.49 7.132ZM1044.18 10.758H1048.52V11.962H1044.18V10.758ZM1056.66 6.698L1055.94 8.14L1052.07 15H1050.28V5.2H1051.6V13.502L1052.32 12.06L1056.19 5.2H1057.98V15H1056.66V6.698ZM1062.46 7.888C1063.34 7.888 1063.99 8.07467 1064.41 8.448C1064.83 8.82133 1065.05 9.302 1065.05 9.89C1065.05 10.226 1064.97 10.5293 1064.83 10.8C1064.68 11.0613 1064.45 11.2713 1064.15 11.43C1064.54 11.598 1064.82 11.822 1064.99 12.102C1065.17 12.3727 1065.26 12.6853 1065.26 13.04C1065.26 13.6467 1065.03 14.146 1064.57 14.538C1064.13 14.9207 1063.42 15.112 1062.46 15.112C1061.49 15.112 1060.77 14.9113 1060.32 14.51C1059.86 14.0993 1059.59 13.5393 1059.52 12.83H1060.81C1060.87 13.1847 1061.03 13.46 1061.27 13.656C1061.51 13.8427 1061.91 13.936 1062.46 13.936C1063.02 13.936 1063.41 13.8473 1063.64 13.67C1063.86 13.4833 1063.97 13.25 1063.97 12.97C1063.97 12.6713 1063.86 12.438 1063.64 12.27C1063.41 12.0927 1063.02 12.004 1062.46 12.004H1061.69V10.856H1062.46C1062.94 10.856 1063.27 10.7767 1063.47 10.618C1063.66 10.4593 1063.76 10.24 1063.76 9.96C1063.76 9.68933 1063.66 9.47467 1063.47 9.316C1063.27 9.148 1062.94 9.064 1062.46 9.064C1061.98 9.064 1061.64 9.15267 1061.44 9.33C1061.23 9.498 1061.09 9.73133 1061.02 10.03H1059.73C1059.8 9.37667 1060.06 8.85867 1060.49 8.476C1060.92 8.084 1061.58 7.888 1062.46 7.888Z" fill="#B3B3B3"/>
</svg>
