<svg width="196" height="20" viewBox="0 0 196 20" fill="none" xmlns="http://www.w3.org/2000/svg">
<path d="M7.50001 18.3332H12.5C16.6667 18.3332 18.3333 16.6665 18.3333 12.4998V7.49984C18.3333 3.33317 16.6667 1.6665 12.5 1.6665H7.50001C3.33334 1.6665 1.66667 3.33317 1.66667 7.49984V12.4998C1.66667 16.6665 3.33334 18.3332 7.50001 18.3332Z" stroke="#009974" stroke-width="1.5" stroke-linecap="round" stroke-linejoin="round"/>
<path d="M9.99999 12.9168C11.6108 12.9168 12.9167 11.611 12.9167 10.0002C12.9167 8.38933 11.6108 7.0835 9.99999 7.0835C8.38916 7.0835 7.08333 8.38933 7.08333 10.0002C7.08333 11.611 8.38916 12.9168 9.99999 12.9168Z" stroke="#009974" stroke-width="1.5" stroke-linecap="round" stroke-linejoin="round"/>
<path d="M14.6968 5.83317H14.7064" stroke="#009974" stroke-width="2" stroke-linecap="round" stroke-linejoin="round"/>
<path d="M55.6667 7.75V10.1667H57.8333C58 10.1667 58.0833 10.3333 58.0833 10.5L57.75 12.0833C57.75 12.1667 57.5833 12.25 57.5 12.25H55.6667V18.3333H53.1667V12.3333H51.75C51.5833 12.3333 51.5 12.25 51.5 12.0833V10.5C51.5 10.3333 51.5833 10.25 51.75 10.25H53.1667V7.5C53.1667 6.08333 54.25 5 55.6667 5H57.9167C58.0833 5 58.1667 5.08333 58.1667 5.25V7.25C58.1667 7.41667 58.0833 7.5 57.9167 7.5H55.9167C55.75 7.5 55.6667 7.58333 55.6667 7.75Z" stroke="#009974" stroke-width="1.5" stroke-miterlimit="10" stroke-linecap="round"/>
<path d="M56.5 18.3332H51.5C47.3333 18.3332 45.6667 16.6665 45.6667 12.4998V7.49984C45.6667 3.33317 47.3333 1.6665 51.5 1.6665H56.5C60.6667 1.6665 62.3333 3.33317 62.3333 7.49984V12.4998C62.3333 16.6665 60.6667 18.3332 56.5 18.3332Z" stroke="#009974" stroke-width="1.5" stroke-linecap="round" stroke-linejoin="round"/>
<path d="M92.8663 6.66683L95.783 13.3335L98.783 6.66683" stroke="#009974" stroke-width="1.5" stroke-miterlimit="10" stroke-linecap="round" stroke-linejoin="round"/>
<path d="M100.296 13.3332V8.9165" stroke="#009974" stroke-width="1.5" stroke-miterlimit="10" stroke-linecap="round" stroke-linejoin="round"/>
<path d="M100.5 18.3332H95.5C91.3333 18.3332 89.6667 16.6665 89.6667 12.4998V7.49984C89.6667 3.33317 91.3333 1.6665 95.5 1.6665H100.5C104.667 1.6665 106.333 3.33317 106.333 7.49984V12.4998C106.333 16.6665 104.667 18.3332 100.5 18.3332Z" stroke="#009974" stroke-width="1.5" stroke-linecap="round" stroke-linejoin="round"/>
<path d="M103.01 8.90106L100.329 10.8332L103.01 13.3062" stroke="#009974" stroke-width="1.5" stroke-linecap="round" stroke-linejoin="round"/>
<path d="M142 9.58333C142.92 9.58333 143.667 8.83714 143.667 7.91667C143.667 6.99619 142.92 6.25 142 6.25C141.08 6.25 140.333 6.99619 140.333 7.91667C140.333 8.83714 141.08 9.58333 142 9.58333Z" stroke="#009974" stroke-width="1.5" stroke-miterlimit="10"/>
<path d="M140.333 11.25C141.417 11.75 142.583 11.75 143.667 11.25" stroke="#009974" stroke-width="1.5" stroke-miterlimit="10" stroke-linecap="round" stroke-linejoin="round"/>
<path d="M140.333 13.7498L142 11.6665L143.667 13.7498" stroke="#009974" stroke-width="1.5" stroke-miterlimit="10" stroke-linecap="round" stroke-linejoin="round"/>
<path d="M142 18.3332C146.602 18.3332 150.333 14.6022 150.333 9.99984C150.333 5.39746 146.602 1.6665 142 1.6665C137.398 1.6665 133.667 5.39746 133.667 9.99984C133.667 14.6022 137.398 18.3332 142 18.3332Z" stroke="#009974" stroke-width="1.5" stroke-miterlimit="10"/>
<path d="M190.167 16.6668H181.833C179.333 16.6668 177.667 15.0002 177.667 12.5002V7.50016C177.667 5.00016 179.333 3.3335 181.833 3.3335H190.167C192.667 3.3335 194.333 5.00016 194.333 7.50016V12.5002C194.333 15.0002 192.667 16.6668 190.167 16.6668Z" stroke="#009974" stroke-width="1.5" stroke-miterlimit="10" stroke-linecap="round" stroke-linejoin="round"/>
<path d="M185.5 7.91676L187.583 9.16676C188.333 9.66676 188.333 10.4168 187.583 10.9168L185.5 12.1668C184.667 12.6668 184 12.2501 184 11.3334V8.83342C184 7.75009 184.667 7.41676 185.5 7.91676Z" stroke="#009974" stroke-width="1.5" stroke-miterlimit="10" stroke-linecap="round" stroke-linejoin="round"/>
</svg>
