<svg width="20" height="19" viewBox="0 0 20 19" fill="none" xmlns="http://www.w3.org/2000/svg">
<path d="M16.6462 6.87263V18.2468C19.5223 18.2468 19.7714 18.2468 19.7714 16.3643V0.366648C18.2617 0.423123 16.6726 0.61514 15.3176 1.25143C13.854 5.12444 12.1884 8.9185 10.3278 12.6181C8.35075 8.63935 6.60901 4.54854 5.11153 0.366648C3.69989 0.449479 2.04291 0.671616 0.797348 1.22508V18.2468H3.91126V6.89899C3.91209 6.84935 3.93015 6.80154 3.96235 6.7637C3.99456 6.72586 4.03892 6.70032 4.08788 6.69144C4.13684 6.68256 4.18738 6.69089 4.23088 6.715C4.27437 6.73911 4.30815 6.77752 4.32644 6.82369C5.64749 10.1859 7.17614 13.5179 8.72743 16.5375C9.81147 16.5191 10.8851 16.3232 11.9055 15.9577C13.5137 12.9852 14.9577 9.92717 16.231 6.79733C16.2493 6.75117 16.2831 6.71276 16.3266 6.68864C16.3701 6.66453 16.4206 6.65621 16.4696 6.66509C16.5185 6.67397 16.5629 6.6995 16.5951 6.73735C16.6273 6.77519 16.6454 6.823 16.6462 6.87263Z" fill="#009974"/>
</svg>
