<svg width="17" height="19" viewBox="0 0 17 19" fill="none" xmlns="http://www.w3.org/2000/svg">
<path d="M8.84346 3.34855H11.3836C13.0444 3.34855 13.7087 3.98108 13.7087 5.55487V18.2468C16.5546 18.2468 17 18.2468 17 16.5902V5.18966C17 1.71076 15.9205 0.359115 12.2971 0.359115H6.41272C5.90317 0.359115 5.25397 0.306405 4.63496 0.283814C4.51987 0.279905 4.40685 0.314996 4.31432 0.383368C4.22179 0.45174 4.1552 0.549361 4.12542 0.660318C3.92915 1.32296 3.29504 3.05112 3.74797 3.49916C4.07257 3.82671 4.55193 3.26196 5.57102 3.26196L5.61254 3.35609C5.45389 6.49739 4.99511 9.61643 4.24242 12.6708C4.20845 12.8026 4.17071 12.9343 4.13297 13.0473L3.83856 13.8003L3.74797 14.0337C3.34033 15.1971 2.79682 15.7431 2.091 15.6715C1.46822 15.6188 1.12852 14.9788 0.939794 15.216C0.528381 15.6979 0.539705 17.0985 0.581224 17.7875C0.592661 17.8979 0.638498 18.0019 0.712295 18.085C0.786092 18.1681 0.884135 18.226 0.992636 18.2506L1.07567 18.2732C1.81727 18.4468 2.58298 18.4939 3.34033 18.4125C3.46823 18.4121 3.59539 18.393 3.71778 18.356C5.60499 18.0736 6.81659 16.6429 7.33368 13.9697C8.28862 9.02247 8.84346 3.34855 8.84346 3.34855Z" fill="#009974"/>
</svg>
