<svg width="18" height="20" viewBox="0 0 18 20" fill="none" xmlns="http://www.w3.org/2000/svg">
<path d="M6.08716 12.545C7.27988 9.20922 8.31785 6.64523 9.03877 5.17686C10.1587 7.67515 11.1366 10.2344 11.9677 12.8425C11.9818 12.8817 11.983 12.9244 11.9712 12.9643C11.9593 13.0042 11.935 13.0393 11.9017 13.0645C11.8685 13.0897 11.828 13.1037 11.7863 13.1044C11.7445 13.1051 11.7036 13.0925 11.6695 13.0684C10.8332 12.4443 9.81901 12.1026 8.77456 12.0932C7.9238 12.0943 7.09055 12.3344 6.37024 12.786C6.3348 12.8048 6.29452 12.8125 6.25462 12.8081C6.21472 12.8038 6.17706 12.7876 6.14653 12.7616C6.116 12.7356 6.09401 12.701 6.08342 12.6624C6.07284 12.6238 6.07414 12.5829 6.08716 12.545ZM3.90554 19.2468C4.71704 19.2468 3.90554 18.8289 4.55851 17.6881C5.16242 16.6866 6.47215 14.9132 8.77456 14.9132C11.009 14.9132 12.5188 16.7958 13.2208 17.7973C13.7719 18.8552 13.0321 19.2468 13.8172 19.2468H17.6105C15.607 13.0536 13.2724 6.97184 10.6165 1.02779C10.3862 0.557163 6.17397 1.02779 6.75524 1.93893C7.21194 2.72582 6.41931 3.9457 5.97393 4.83048C3.76211 9.07744 2.02587 13.7536 0.225464 19.2468H3.93196H3.90554Z" fill="#009974"/>
</svg>
