<svg width="20" height="8" viewBox="0 0 20 8" fill="none" xmlns="http://www.w3.org/2000/svg">
<path d="M16.7912 0.504513C16.7308 0.783126 16.6554 2.25902 15.8099 3.17016C15.6778 3.30947 15.172 3.71985 15.0361 3.65961C14.6134 3.47889 14.4247 2.39456 14.3794 1.83734C14.295 1.23669 14.3505 0.624708 14.5417 0.0489436C13.4093 -0.229669 11.1447 0.753006 10.5596 1.48719C10.9972 1.79042 11.4168 2.11852 11.8165 2.46986C12.0969 2.77136 12.3367 3.10803 12.5299 3.47136C12.696 3.74998 13.0168 4.43898 12.7111 4.56699C11.867 4.92604 10.9512 5.08581 10.035 5.03385C9.11759 5.08626 8.20045 4.92648 7.35515 4.56699C7.0532 4.43898 7.35515 3.74998 7.53632 3.47136C7.73217 3.10876 7.97312 2.77227 8.25346 2.46986C8.65296 2.12408 9.07266 1.80223 9.51035 1.50601C8.92531 0.753006 6.67198 -0.229669 5.52832 0.0489436C5.71586 0.625458 5.77132 1.2366 5.69063 1.83734C5.64533 2.39456 5.45661 3.47889 5.03387 3.65961C4.89799 3.71985 4.39222 3.30947 4.26011 3.17016C3.41464 2.25902 3.33538 0.783126 3.27876 0.504513C2.04452 0.805716 0.515877 2.76354 0.353577 4.29214C3.15421 4.29214 3.88267 7.63549 10.035 7.63549C16.1873 7.63549 16.9007 4.29214 19.7164 4.29214C19.5541 2.78613 18.0255 0.805716 16.7912 0.504513Z" fill="#009974"/>
</svg>
