<svg width="16" height="19" viewBox="0 0 16 19" fill="none" xmlns="http://www.w3.org/2000/svg">
<path d="M11.8781 9.9449C11.877 9.98892 11.865 10.032 11.8432 10.0703C11.8214 10.1085 11.7904 10.1408 11.7531 10.1643C11.7157 10.1878 11.6732 10.2017 11.6291 10.2048C11.5851 10.2079 11.541 10.2001 11.5007 10.1821C10.6986 9.77613 9.80657 9.57926 8.90766 9.60981C6.80908 9.60981 5.39366 8.341 5.39366 6.43589C5.39366 4.22958 7.16387 3.12642 9.34927 3.12642H9.81353C11.278 3.12642 11.8857 3.73259 11.8857 5.11436L11.8781 9.9449ZM10.5231 0.366648H8.91898C4.85392 0.366648 1.92119 2.43742 1.92119 6.0142C1.92119 8.77397 3.43096 10.5322 5.79375 11.3681L3.41586 14.4855L3.26111 14.67L3.05352 14.9072C2.84111 15.1318 2.60148 15.3291 2.34015 15.4946C1.94993 15.6729 1.51 15.7114 1.09459 15.6038C0.554842 15.487 0.147203 15.2837 0.0377443 15.6263C-0.158526 16.2363 0.483127 17.5089 0.868119 18.0736C1.0229 18.2657 1.22257 18.4169 1.44961 18.5141C1.67664 18.6112 1.92411 18.6513 2.1703 18.6308C3.99335 18.6308 5.24646 18.228 7.38657 14.8093C7.40921 14.7717 7.43186 14.734 7.45828 14.6964L7.71117 14.2822L9.02844 12.3696L10.0438 12.6633C10.5724 12.817 11.0368 13.1375 11.3675 13.5767C11.6982 14.0158 11.8773 14.55 11.8781 15.0992V18.2468C14.7278 18.2468 15.1694 18.2468 15.1694 16.5902V4.91858C15.1694 1.63546 13.8975 0.366648 10.5231 0.366648Z" fill="#009974"/>
</svg>
